<?xml version="1.0" standalone="no"?>
<!DOCTYPE svg PUBLIC "-//W3C//DTD SVG 20010904//EN"
 "http://www.w3.org/TR/2001/REC-SVG-20010904/DTD/svg10.dtd">
<svg version="1.0" xmlns="http://www.w3.org/2000/svg"
 width="225.000000pt" height="225.000000pt" viewBox="0 0 225.000000 225.000000"
 preserveAspectRatio="xMidYMid meet">

<g transform="translate(0.000000,225.000000) scale(0.100000,-0.100000)"
fill="#000000" stroke="none">
<path d="M1037 1429 c-21 -5 -51 -16 -67 -24 -16 -8 -49 -15 -74 -15 -25 0
-48 -4 -51 -10 -3 -5 1 -10 9 -10 24 0 19 -34 -8 -59 -45 -42 -67 -113 -65
-205 1 -47 -3 -92 -10 -104 -10 -19 -9 -22 6 -22 9 0 30 -12 45 -27 25 -24 28
-25 28 -7 0 10 -9 34 -20 52 -12 19 -20 50 -20 75 1 81 71 191 143 225 25 12
66 35 92 51 26 16 69 38 96 47 l49 18 -47 13 c-55 14 -55 14 -106 2z"/>
<path d="M453 1279 c14 -8 17 -25 17 -99 0 -60 -4 -93 -13 -102 -20 -19 103
-23 148 -4 86 36 93 154 11 198 -26 14 -188 21 -163 7z m145 -34 c34 -29 46
-71 31 -115 -13 -36 -35 -50 -82 -50 -43 0 -47 9 -47 111 l0 79 34 0 c22 0 45
-9 64 -25z"/>
<path d="M1620 1174 c0 -49 -4 -94 -9 -99 -6 -6 1 -10 19 -10 18 0 26 4 20 10
-6 5 -10 34 -10 64 l0 54 73 -69 72 -69 2 30 c9 123 8 165 -7 165 -12 0 -14
-13 -12 -67 l3 -68 -75 75 -76 74 0 -90z"/>
<path d="M725 1225 c-36 -35 -35 -96 2 -133 28 -28 42 -18 24 17 -16 29 -13
97 4 115 8 8 15 17 15 20 0 14 -23 4 -45 -19z"/>
<path d="M1098 1164 c2 -52 -1 -89 -7 -93 -5 -4 8 -6 30 -6 22 0 36 1 30 3
-17 6 -15 172 2 172 39 0 51 -65 15 -80 -22 -8 -22 -9 -2 -9 41 -2 70 59 42
87 -7 7 -35 12 -62 12 l-51 0 3 -86z"/>
<path d="M1268 1169 c2 -44 -1 -85 -6 -92 -8 -9 -1 -12 28 -12 32 -1 35 1 23
13 -8 8 -13 28 -11 46 3 29 5 31 51 34 l47 3 0 -45 c0 -24 -5 -46 -11 -48 -6
-2 8 -3 30 -3 22 0 35 2 30 6 -6 4 -9 41 -7 93 l3 86 -25 0 c-24 0 -25 -3 -22
-41 l4 -40 -48 3 -49 3 1 38 c1 31 -2 37 -20 37 -20 0 -21 -4 -18 -81z"/>
<path d="M1508 1164 c3 -64 0 -89 -10 -96 -9 -7 -8 -8 5 -4 10 3 25 6 32 6 10
0 14 23 17 90 l3 90 -25 0 c-25 0 -25 0 -22 -86z"/>
<path d="M963 1213 c-9 -3 -13 -26 -13 -67 0 -34 -4 -66 -9 -71 -6 -6 14 -11
54 -12 56 -1 64 1 68 19 5 16 3 18 -6 9 -6 -6 -24 -11 -39 -11 -28 0 -28 0
-28 70 0 69 -2 74 -27 63z"/>
<path d="M880 1128 c-11 -18 -20 -37 -20 -43 1 -16 50 44 50 61 0 22 -9 17
-30 -18z"/>
<path d="M985 1031 c-74 -31 -86 -152 -19 -196 33 -21 106 -30 133 -16 11 7
21 21 21 34 l0 21 -16 -22 c-29 -42 -104 -22 -133 35 -25 50 -4 115 44 133 33
13 78 -2 92 -31 13 -24 13 -24 13 7 0 20 -6 34 -16 38 -22 8 -95 6 -119 -3z"/>
<path d="M1214 1003 c-37 -7 -69 -50 -69 -93 0 -74 74 -117 148 -87 41 18 59
46 59 94 0 60 -66 102 -138 86z m66 -23 c30 -16 46 -81 29 -116 -11 -23 -22
-30 -50 -32 -43 -4 -67 19 -76 72 -11 66 40 106 97 76z"/>
<path d="M1407 913 c20 -49 39 -91 43 -96 3 -4 26 36 51 88 39 82 43 95 27 95
-10 0 -18 -6 -18 -14 0 -7 -11 -38 -24 -67 l-24 -54 -16 40 c-10 22 -20 52
-23 68 -4 20 -11 27 -29 27 l-23 0 36 -87z"/>
<path d="M1578 910 l3 -90 55 0 c45 0 54 3 53 18 0 10 -3 12 -6 5 -2 -7 -18
-13 -34 -13 -27 0 -29 2 -29 40 0 36 3 40 24 40 13 0 27 -6 29 -12 3 -7 6 -4
6 8 1 17 -4 20 -29 16 -29 -4 -30 -3 -30 32 0 31 3 36 24 36 13 0 27 -6 29
-12 3 -8 6 -6 6 5 1 14 -8 17 -51 17 l-53 0 3 -90z"/>
</g>
</svg>
